# xmcd
# Track frame offsets:
# 150
# 14277
# 29881
# 41760
# 53392
# 62650
# 75867
# 90536
# 108114
# 122462
# 142362
# 160401
#
# Disc length: 2291 seconds
# Revision: 0
# Processed by: cddbd v1.5.2PL0 Copyright (c) Steve Scherf et al.
# Submitted via: VisiTrax 2.11.2.271 - For more info visit www.synapsa.com
#
DISCID=9408f10c
DTITLE=Stormcellar - Carl's Chair
DYEAR=2011
DGENRE=Blues
TTITLE0=Company of A Friend
TTITLE1=Hollow Tree
TTITLE2=Lucky Streak
TTITLE3=Half Man Cow
TTITLE4=The Way That She Smiles (for Isabel)
TTITLE5=Cheap Hotel
TTITLE6=Tall Timbers
TTITLE7=Running Jody
TTITLE8=Snowy and The Boys (Play Me Some Mandolin)
TTITLE9=Southern Belles
TTITLE10=Rest My Bones
TTITLE11=Sunshine In The Rain
EXTD=
EXTT0=
EXTT1=
EXTT2=
EXTT3=
EXTT4=
EXTT5=
EXTT6=
EXTT7=
EXTT8=
EXTT9=
EXTT10=
EXTT11=
PLAYORDER=
